# xmcd
# 
# Track frame offsets:
#     150
#     18443
#     45733
#     70225
# 
# Disc length: 1328
# 
# Revision: 0
# Processed by: cddbd v1.5.2PL0 Copyright (c) Steve Scherf et al.
# Submitted via: BonkEnc v1.0.8
# 
DISCID=2e052e04
DTITLE=D.O.P. - Groovy Beat
DYEAR=1996
DGENRE=Dance
TTITLE0=Groovy Beat (Goodfello's Radio Edit)
TTITLE1=Groovy Beat (D.O.P. Alternative Mix)
TTITLE2=Groovy Beat (Original '92 Mix)
TTITLE3=Do This Do That
EXTD=
EXTT0=
EXTT1=
EXTT2=
EXTT3=
PLAYORDER=
